<svg width="41" height="41" viewBox="0 0 41 41" fill="none" xmlns="http://www.w3.org/2000/svg">
<path fill-rule="evenodd" clip-rule="evenodd" d="M20.2925 15.328L20.489 15.228L20.2925 15.328Z" fill="#61B23A"/>
<path fill-rule="evenodd" clip-rule="evenodd" d="M15.7173 11.4576H15.7179L20.496 9.1113V8.79222L17.3919 1.99951L15.7173 11.4567V11.4576Z" fill="#BED89A"/>
<path fill-rule="evenodd" clip-rule="evenodd" d="M15.9447 15.6848H12.9288L16.2277 17.5129L16.0609 15.6738L15.9447 15.6848Z" fill="#23A238"/>
<path fill-rule="evenodd" clip-rule="evenodd" d="M15.716 11.4565L15.7171 11.4574V11.4565H15.716Z" fill="#5FB356"/>
<path fill-rule="evenodd" clip-rule="evenodd" d="M10.2419 22.2503L10.261 22.2976L10.2683 22.3143L12.887 29.3675L16.2277 17.5129L10.2419 22.2503Z" fill="#B2D17C"/>
<path fill-rule="evenodd" clip-rule="evenodd" d="M10.145 22.496L10.1423 22.5271L10.2682 22.3141L10.261 22.2976L10.145 22.496Z" fill="#61B239"/>
<path fill-rule="evenodd" clip-rule="evenodd" d="M10.1626 22.3142L10.2418 22.2503L10.214 22.1817L10.1626 22.3142Z" fill="#61B239"/>
<path fill-rule="evenodd" clip-rule="evenodd" d="M10.1626 22.3142L10.1449 22.496L10.2609 22.2977L10.2418 22.2502L10.1626 22.3142Z" fill="#61B239"/>
<path fill-rule="evenodd" clip-rule="evenodd" d="M0 28.0001L3.58722 33.6822L3.91862 33.1202L4.0146 32.9565L10.1449 22.4961L10.1627 22.3142L0 28.0001Z" fill="#61B23A"/>
<path fill-rule="evenodd" clip-rule="evenodd" d="M4.01459 32.9564L10.1421 22.527L10.1449 22.4961L4.01459 32.9564Z" fill="#61B239"/>
<path fill-rule="evenodd" clip-rule="evenodd" d="M10.1422 22.5271L4.01466 32.9565L3.91868 33.1201L3.58728 33.6821L8.59211 38.3144L8.64615 37.7715L10.1422 22.5271Z" fill="#61B239"/>
<path fill-rule="evenodd" clip-rule="evenodd" d="M20.6441 15.328L20.4487 15.228L20.6441 15.328Z" fill="#61B23A"/>
<path fill-rule="evenodd" clip-rule="evenodd" d="M23.3941 2.00049L20.2899 8.79206Z" fill="#7ABB61"/>
<path fill-rule="evenodd" clip-rule="evenodd" d="M25.069 11.4565V11.4579L25.0698 11.4565H25.069Z" fill="#5FB356"/>
<path fill-rule="evenodd" clip-rule="evenodd" d="M30.518 22.3141L30.6438 22.5275L30.6408 22.4963L30.524 22.2976L30.518 22.3141Z" fill="#61B239"/>
<path fill-rule="evenodd" clip-rule="evenodd" d="M30.5432 22.2509L30.6229 22.3143L30.5719 22.1816L30.5432 22.2509Z" fill="#61B239"/>
<path fill-rule="evenodd" clip-rule="evenodd" d="M30.5241 22.2976L30.6407 22.4965L30.6229 22.3141L30.5432 22.2507L30.5241 22.2976Z" fill="#61B239"/>
<path fill-rule="evenodd" clip-rule="evenodd" d="M17.0888 32.104L15.5583 35.1038L18.2302 38.3145H20.4959V32.104H17.0888Z" fill="#61B23A"/>
<path fill-rule="evenodd" clip-rule="evenodd" d="M20.496 30.3699L17.1886 31.907V31.9074L17.0888 32.104H20.496V30.3699Z" fill="#23A238"/>
<path fill-rule="evenodd" clip-rule="evenodd" d="M20.496 16.1262L18.7534 24.1049H20.496V16.1262Z" fill="#44AB34"/>
<path fill-rule="evenodd" clip-rule="evenodd" d="M18.7534 24.1047L20.496 27.7509V24.1047H18.7534Z" fill="#23A238"/>
<path fill-rule="evenodd" clip-rule="evenodd" d="M20.4959 16.1261V15.3279L16.2278 17.513L12.8871 29.3673L18.7534 24.1047L20.4959 16.1261Z" fill="#61B23A"/>
<path fill-rule="evenodd" clip-rule="evenodd" d="M20.4959 9.11133L15.7178 11.4576L20.4959 15.0785V9.11133Z" fill="#44AB34"/>
<path fill-rule="evenodd" clip-rule="evenodd" d="M20.4959 30.3698V27.7509L18.7534 24.1047L12.8871 29.3673L14.5627 32.1039H16.7636L17.1886 31.9073V31.9069L20.4959 30.3698Z" fill="#B2D17C"/>
<path fill-rule="evenodd" clip-rule="evenodd" d="M12.7222 15.6848L10.214 22.1816L10.242 22.2503L16.2278 17.5129L12.9287 15.6848H12.7222Z" fill="#61B23A"/>
<path fill-rule="evenodd" clip-rule="evenodd" d="M15.9447 15.6848L16.0609 15.6738L15.6754 11.4597L6.09033 11.895L12.9288 15.6848H15.9447Z" fill="#61B23A"/>
<path fill-rule="evenodd" clip-rule="evenodd" d="M15.7179 11.4575H15.7174L15.6754 11.4598L16.0609 15.6739L16.2277 17.513L20.496 15.328V15.0786L15.7179 11.4575Z" fill="#44AB34"/>
<path fill-rule="evenodd" clip-rule="evenodd" d="M12.9128 0L15.7161 11.4551L15.7172 11.4567L17.392 1.99951L12.9128 0Z" fill="#B2D17C"/>
<path fill-rule="evenodd" clip-rule="evenodd" d="M15.6755 11.4598L15.6736 11.4361L4.5061 6.20972L5.23749 8.83315L6.09037 11.8949L15.6755 11.4598Z" fill="#44AB34"/>
<path fill-rule="evenodd" clip-rule="evenodd" d="M15.6684 11.3949V11.393L10.2683 4.31519L4.50616 6.20973L15.6735 11.4359L15.6684 11.3949Z" fill="#23A238"/>
<path fill-rule="evenodd" clip-rule="evenodd" d="M12.9128 0L10.2682 4.31525L15.6683 11.3931V11.395L15.7161 11.4551L12.9128 0Z" fill="#61B23A"/>
<path fill-rule="evenodd" clip-rule="evenodd" d="M10.1421 22.527L8.64612 37.7714L12.8871 29.3673L10.2682 22.3142L10.1421 22.527Z" fill="#23A238"/>
<path fill-rule="evenodd" clip-rule="evenodd" d="M8.64614 37.7715L8.5921 38.3144L11.5783 40.8406L12.8871 29.3674L8.64614 37.7715Z" fill="#B2D17C"/>
<path fill-rule="evenodd" clip-rule="evenodd" d="M12.9287 15.6849L6.09021 11.895L7.36858 15.0856L10.2138 22.1817L12.7222 15.6849H12.9287Z" fill="#61B23A"/>
<path fill-rule="evenodd" clip-rule="evenodd" d="M10.2139 22.1817L7.36867 15.0857L2.82334 15.9797L0.837769 16.37L10.1627 22.3144L10.2139 22.1817Z" fill="#B2D17C"/>
<path fill-rule="evenodd" clip-rule="evenodd" d="M0 28.0001L10.1627 22.3142L2.61852 20.946L0 28.0001Z" fill="#44AB34"/>
<path fill-rule="evenodd" clip-rule="evenodd" d="M0.837708 16.3699L2.61847 20.9459L10.1627 22.3143L0.837708 16.3699Z" fill="#23A238"/>
<path fill-rule="evenodd" clip-rule="evenodd" d="M6.09025 11.8949L5.23737 8.83301H5.23643L1.30988 14.1776L2.82329 15.9797L7.36862 15.0857L6.09025 11.8949Z" fill="#B2D17C"/>
<path fill-rule="evenodd" clip-rule="evenodd" d="M20.3955 0L17.3919 2.00046L20.4947 8.789L23.5976 2.00046L20.5939 0H20.3955Z" fill="#61B23A"/>
<path fill-rule="evenodd" clip-rule="evenodd" d="M12.887 29.3674L14.5625 32.104H16.7637L17.1884 31.9073L15.5585 35.1038L12.2327 35.1044" fill="#B2D17C"/>
<path fill-rule="evenodd" clip-rule="evenodd" d="M20.404 15.328L20.2077 15.228L20.404 15.328Z" fill="#61B23A"/>
<path fill-rule="evenodd" clip-rule="evenodd" d="M25.1827 11.4576H25.182L20.4041 9.1113V8.79222L23.5082 1.99951L25.1827 11.4567V11.4576Z" fill="#BED89A"/>
<path fill-rule="evenodd" clip-rule="evenodd" d="M24.9553 15.6848H27.9711L24.6722 17.5129L24.8391 15.6738L24.9553 15.6848Z" fill="#23A238"/>
<path fill-rule="evenodd" clip-rule="evenodd" d="M25.1826 11.4565V11.4574L25.1839 11.4565H25.1826Z" fill="#5FB356"/>
<path fill-rule="evenodd" clip-rule="evenodd" d="M30.6581 22.2503L30.639 22.2976L30.6317 22.3143L28.013 29.3675L24.6723 17.5129L30.6581 22.2503Z" fill="#B2D17C"/>
<path fill-rule="evenodd" clip-rule="evenodd" d="M30.6317 22.3141L30.7578 22.5269L30.7551 22.496L30.6391 22.2976L30.6317 22.3141Z" fill="#61B239"/>
<path fill-rule="evenodd" clip-rule="evenodd" d="M30.6581 22.2504L30.7375 22.3143L30.6861 22.1816L30.6581 22.2504Z" fill="#61B239"/>
<path fill-rule="evenodd" clip-rule="evenodd" d="M30.6391 22.2975L30.7551 22.4959L30.7375 22.314L30.6581 22.2502L30.6391 22.2975Z" fill="#61B239"/>
<path fill-rule="evenodd" clip-rule="evenodd" d="M30.7551 22.4961L36.8854 32.9566L36.9812 33.1202L37.3128 33.6822L40.9 28.0001L30.7375 22.3142L30.7551 22.4961Z" fill="#61B23A"/>
<path fill-rule="evenodd" clip-rule="evenodd" d="M36.8854 32.9564L30.7578 22.527L30.755 22.4961L36.8854 32.9564Z" fill="#61B239"/>
<path fill-rule="evenodd" clip-rule="evenodd" d="M30.7578 22.5271L36.8853 32.9565L36.9813 33.1201L37.3127 33.6821L32.3079 38.3144L32.2538 37.7715L30.7578 22.5271Z" fill="#61B239"/>
<path fill-rule="evenodd" clip-rule="evenodd" d="M20.0524 15.328L20.2479 15.228L20.0524 15.328Z" fill="#61B23A"/>
<path fill-rule="evenodd" clip-rule="evenodd" d="M17.5059 2.00049L20.6102 8.79206Z" fill="#7ABB61"/>
<path fill-rule="evenodd" clip-rule="evenodd" d="M23.8113 32.104L25.3416 35.1038L22.67 38.3145H20.404V32.104H23.8113Z" fill="#61B23A"/>
<path fill-rule="evenodd" clip-rule="evenodd" d="M20.4041 30.3699L23.7116 31.907V31.9074L23.8114 32.104H20.4041V30.3699Z" fill="#23A238"/>
<path fill-rule="evenodd" clip-rule="evenodd" d="M20.4041 16.1262L22.1466 24.1049H20.4041V16.1262Z" fill="#44AB34"/>
<path fill-rule="evenodd" clip-rule="evenodd" d="M22.1466 24.1047L20.4041 27.7509V24.1047H22.1466Z" fill="#23A238"/>
<path fill-rule="evenodd" clip-rule="evenodd" d="M20.4041 16.1261V15.3279L24.6722 17.513L28.013 29.3673L22.1466 24.1047L20.4041 16.1261Z" fill="#61B23A"/>
<path fill-rule="evenodd" clip-rule="evenodd" d="M20.4041 9.11133L25.182 11.4576L20.4041 15.0785V9.11133Z" fill="#44AB34"/>
<path fill-rule="evenodd" clip-rule="evenodd" d="M20.4041 30.3698V27.7509L22.1466 24.1047L28.013 29.3673L26.3373 32.1039H24.1364L23.7116 31.9073V31.9069L20.4041 30.3698Z" fill="#B2D17C"/>
<path fill-rule="evenodd" clip-rule="evenodd" d="M28.1778 15.6848L30.6861 22.1816L30.658 22.2503L24.6722 17.5129L27.9713 15.6848H28.1778Z" fill="#61B23A"/>
<path fill-rule="evenodd" clip-rule="evenodd" d="M24.9553 15.6848L24.8391 15.6738L25.2245 11.4597L34.8097 11.895L27.9712 15.6848H24.9553Z" fill="#61B23A"/>
<path fill-rule="evenodd" clip-rule="evenodd" d="M25.182 11.4575H25.1827L25.2245 11.4598L24.8392 15.6739L24.6722 17.513L20.4041 15.328V15.0786L25.182 11.4575Z" fill="#44AB34"/>
<path fill-rule="evenodd" clip-rule="evenodd" d="M27.9871 0L23.5081 1.99951L25.1826 11.4567L25.1839 11.4551L27.9871 0Z" fill="#B2D17C"/>
<path fill-rule="evenodd" clip-rule="evenodd" d="M25.2245 11.4598L25.2264 11.4361L36.3939 6.20972L35.6627 8.83315L34.8096 11.8949L25.2245 11.4598Z" fill="#44AB34"/>
<path fill-rule="evenodd" clip-rule="evenodd" d="M25.2317 11.3949V11.393L30.6318 4.31519L36.3939 6.20973L25.2264 11.4359L25.2317 11.3949Z" fill="#23A238"/>
<path fill-rule="evenodd" clip-rule="evenodd" d="M27.987 0L25.1839 11.4551L25.2317 11.395V11.3931L30.6318 4.31525L27.987 0Z" fill="#61B23A"/>
<path fill-rule="evenodd" clip-rule="evenodd" d="M30.7579 22.527L32.2539 37.7714L28.0131 29.3673L30.6318 22.3142L30.7579 22.527Z" fill="#23A238"/>
<path fill-rule="evenodd" clip-rule="evenodd" d="M29.3217 40.8406L32.3079 38.3145L32.2541 37.7715L28.0131 29.3674L29.3217 40.8406Z" fill="#B2D17C"/>
<path fill-rule="evenodd" clip-rule="evenodd" d="M27.9713 15.6849L34.8097 11.895L33.5314 15.0856L30.6861 22.1817L28.1778 15.6849H27.9713Z" fill="#61B23A"/>
<path fill-rule="evenodd" clip-rule="evenodd" d="M30.6862 22.1817L33.5314 15.0857L38.0765 15.9797L40.0623 16.37L30.7374 22.3144L30.6862 22.1817Z" fill="#B2D17C"/>
<path fill-rule="evenodd" clip-rule="evenodd" d="M30.7375 22.3142L40.9001 28.0001L38.2815 20.946L30.7375 22.3142Z" fill="#44AB34"/>
<path fill-rule="evenodd" clip-rule="evenodd" d="M40.0623 16.3699L38.2816 20.9459L30.7374 22.3143L40.0623 16.3699Z" fill="#23A238"/>
<path fill-rule="evenodd" clip-rule="evenodd" d="M34.8097 11.8949L35.6626 8.83301H35.6636L39.5901 14.1776L38.0767 15.9797L33.5314 15.0857L34.8097 11.8949Z" fill="#B2D17C"/>
<path fill-rule="evenodd" clip-rule="evenodd" d="M28.013 29.3674L26.3373 32.104H24.1363L23.7116 31.9073L25.3416 35.1038L28.6673 35.1044" fill="#B2D17C"/>
</svg>
